<svg width="16" height="16" viewBox="0 0 16 16" fill="none" xmlns="http://www.w3.org/2000/svg">
<g clip-path="url(#clip0_12501_54192)">
<path d="M13.7338 2.27531C13.3788 1.92036 12.8055 1.92036 12.4505 2.27531L8 6.71672L3.54949 2.26621C3.19454 1.91126 2.62116 1.91126 2.26621 2.26621C1.91126 2.62116 1.91126 3.19454 2.26621 3.54949L6.71672 8L2.26621 12.4505C1.91126 12.8055 1.91126 13.3788 2.26621 13.7338C2.62116 14.0887 3.19454 14.0887 3.54949 13.7338L8 9.28328L12.4505 13.7338C12.8055 14.0887 13.3788 14.0887 13.7338 13.7338C14.0887 13.3788 14.0887 12.8055 13.7338 12.4505L9.28328 8L13.7338 3.54949C14.0796 3.20364 14.0796 2.62116 13.7338 2.27531Z" fill="#E7ECF3"/>
</g>
<defs>
<clipPath id="clip0_12501_54192">
<rect width="16" height="16" fill="white"/>
</clipPath>
</defs>
</svg>
